<?xml version="1.0" encoding="UTF-8"?>
<svg xmlns="http://www.w3.org/2000/svg" version="1.1" viewBox="0 0 512 512">
  <defs>
    <style>
      .cls-1, .cls-2 {
        fill: #fff;
      }

      .cls-2, .cls-3 {
        fill-rule: evenodd;
      }

      .cls-4 {
        fill: #879aa0;
      }

      .cls-3 {
        fill: #ffab40;
      }

      .cls-5 {
        fill: #5f6b75;
      }
    </style>
  </defs>
  <!-- Generator: Adobe Illustrator 28.7.1, SVG Export Plug-In . SVG Version: 1.2.0 Build 142)  -->
  <g>
    <g id="Ebene_1">
      <g>
        <path class="cls-5" d="M109.4,414.5V101.5c0-10.2,8.8-18.5,19.6-18.5h29.3l39.1,184.2-39.1,165.8h-29.3c-10.8,0-19.6-8.3-19.6-18.5h0Z"/>
        <path class="cls-4" d="M158.3,433V83h224.8c10.8,0,19.6,8.3,19.6,18.5v313.1c0,10.2-8.8,18.5-19.6,18.5h-224.8Z"/>
        <path class="cls-3" d="M197.4,129.1v27.6h107.5v-27.6h-107.5Z"/>
        <path class="cls-3" d="M226.7,175.1v27.6h78.2v-27.6h-78.2Z"/>
        <path class="cls-2" d="M353.8,83v147.4l-34.2-27.6-34.2,27.6V83h68.4Z"/>
      </g>
      <g>
        <g>
          <path class="cls-1" d="M240.7,330.1v7.8h-14v40.9h-9v-40.9h-14v-7.8h37Z"/>
          <path class="cls-1" d="M245.8,378.8v-48.7h9v20.1h24v-20.1h9v48.7h-9v-20.8h-24v20.8h-9,0Z"/>
          <path class="cls-1" d="M331.5,330.1v7.8h-24.4v12.3h23.2v8.1h-23.3v12.8h25v7.8h-33.8v-48.7h33.4,0Z"/>
          <path class="cls-1" d="M349.3,330.1v48.7h-9v-48.7h9ZM383.6,330.1l-20.8,22.7,23,26h-12.5l-18.8-22.8v-5.9l18.1-20.1h11,0Z"/>
        </g>
        <g>
          <path class="cls-1" d="M173.6,310.8v-48.7h22.8c9.3,0,13.9,3.8,13.9,11.3s-3,9.5-9.1,11.9c6.5,1.2,9.7,4.9,9.7,11.1,0,9.6-5.1,14.4-15.2,14.4h-22.1ZM195.3,303c4,0,6-2,6-6.1s-3-7.6-9-7.6h-2.7v-5.8c7.5-1.3,11.2-4.4,11.2-9.4s-1.7-4.1-5-4.1h-13.2v33h12.7Z"/>
          <path class="cls-1" d="M227.6,262.1v48.7h-9v-48.7h9Z"/>
          <path class="cls-1" d="M237.8,310.8v-48.7h22.8c9.3,0,13.9,3.8,13.9,11.3s-3,9.5-9.1,11.9c6.5,1.2,9.7,4.9,9.7,11.1,0,9.6-5.1,14.4-15.2,14.4h-22.1ZM259.5,303c4,0,6-2,6-6.1s-3-7.6-9-7.6h-2.7v-5.8c7.5-1.3,11.2-4.4,11.2-9.4s-1.7-4.1-5-4.1h-13.2v33h12.7Z"/>
          <path class="cls-1" d="M291.8,262.1v40.9h19.3v7.8h-28.4v-48.7h9Z"/>
          <path class="cls-1" d="M328.7,262.1v48.7h-9v-48.7h9Z"/>
          <path class="cls-1" d="M337.2,286.5c0-16.5,8.2-24.8,24.5-24.8s24.1,8.3,24.1,24.8-8,24.6-24.1,24.6-23.7-8.2-24.5-24.6ZM361.7,303.3c9.8,0,14.7-5.7,14.7-17s-4.9-16.7-14.7-16.7-15.1,5.6-15.1,16.7,5,17,15.1,17Z"/>
        </g>
      </g>
    </g>
  </g>
</svg>