<?xml version="1.0" encoding="UTF-8"?>
<svg xmlns="http://www.w3.org/2000/svg" version="1.1" xmlns:xlink="http://www.w3.org/1999/xlink" viewBox="0 0 512 512">
  <defs>
    <style>
      .cls-1 {
        clip-path: url(#clippath-21);
      }

      .cls-2 {
        clip-path: url(#clippath-6);
      }

      .cls-3 {
        clip-path: url(#clippath-7);
      }

      .cls-4 {
        clip-path: url(#clippath-17);
      }

      .cls-5 {
        clip-path: url(#clippath-15);
      }

      .cls-6 {
        clip-path: url(#clippath-18);
      }

      .cls-7 {
        clip-path: url(#clippath-4);
      }

      .cls-8 {
        clip-path: url(#clippath-22);
      }

      .cls-9 {
        clip-path: url(#clippath-23);
      }

      .cls-10 {
        clip-path: url(#clippath-9);
      }

      .cls-11 {
        clip-path: url(#clippath-10);
      }

      .cls-12 {
        clip-path: url(#clippath-25);
      }

      .cls-13 {
        clip-path: url(#clippath-27);
      }

      .cls-14 {
        clip-path: url(#clippath-11);
      }

      .cls-15 {
        fill: none;
      }

      .cls-16 {
        clip-path: url(#clippath-28);
      }

      .cls-17 {
        clip-path: url(#clippath-1);
      }

      .cls-18 {
        clip-path: url(#clippath-5);
      }

      .cls-19 {
        clip-path: url(#clippath-20);
      }

      .cls-20 {
        clip-path: url(#clippath-8);
      }

      .cls-21 {
        clip-path: url(#clippath-3);
      }

      .cls-22 {
        clip-path: url(#clippath-26);
      }

      .cls-23 {
        clip-path: url(#clippath-12);
      }

      .cls-24 {
        clip-path: url(#clippath-14);
      }

      .cls-25 {
        clip-path: url(#clippath-19);
      }

      .cls-26 {
        fill: #600;
      }

      .cls-27 {
        clip-path: url(#clippath-16);
      }

      .cls-28 {
        clip-path: url(#clippath-2);
      }

      .cls-29 {
        clip-path: url(#clippath-29);
      }

      .cls-30 {
        clip-path: url(#clippath-13);
      }

      .cls-31 {
        clip-path: url(#clippath-24);
      }

      .cls-32 {
        clip-path: url(#clippath);
      }
    </style>
    <clipPath id="clippath">
      <rect class="cls-15" y="121.9" width="178.9" height="268.3"/>
    </clipPath>
    <clipPath id="clippath-1">
      <rect class="cls-15" y="121.9" width="178.9" height="268.3"/>
    </clipPath>
    <clipPath id="clippath-2">
      <rect class="cls-15" y="121.9" width="178.9" height="268.3"/>
    </clipPath>
    <clipPath id="clippath-3">
      <rect class="cls-15" y="121.9" width="178.9" height="268.3"/>
    </clipPath>
    <clipPath id="clippath-4">
      <rect class="cls-15" y="121.9" width="178.9" height="268.3"/>
    </clipPath>
    <clipPath id="clippath-5">
      <rect class="cls-15" y="121.9" width="178.9" height="268.3"/>
    </clipPath>
    <clipPath id="clippath-6">
      <rect class="cls-15" y="121.9" width="178.9" height="268.3"/>
    </clipPath>
    <clipPath id="clippath-7">
      <rect class="cls-15" y="121.9" width="178.9" height="268.3"/>
    </clipPath>
    <clipPath id="clippath-8">
      <rect class="cls-15" y="121.9" width="178.9" height="268.3"/>
    </clipPath>
    <clipPath id="clippath-9">
      <rect class="cls-15" y="121.9" width="178.9" height="268.3"/>
    </clipPath>
    <clipPath id="clippath-10">
      <rect class="cls-15" y="121.9" width="178.9" height="268.3"/>
    </clipPath>
    <clipPath id="clippath-11">
      <rect class="cls-15" y="121.9" width="178.9" height="268.3"/>
    </clipPath>
    <clipPath id="clippath-12">
      <rect class="cls-15" y="121.9" width="178.9" height="268.3"/>
    </clipPath>
    <clipPath id="clippath-13">
      <rect class="cls-15" y="121.9" width="178.9" height="268.3"/>
    </clipPath>
    <clipPath id="clippath-14">
      <rect class="cls-15" y="121.9" width="178.9" height="268.3"/>
    </clipPath>
    <clipPath id="clippath-15">
      <rect class="cls-15" y="121.9" width="178.9" height="268.3"/>
    </clipPath>
    <clipPath id="clippath-16">
      <rect class="cls-15" y="121.9" width="178.9" height="268.3"/>
    </clipPath>
    <clipPath id="clippath-17">
      <rect class="cls-15" y="121.9" width="178.9" height="268.3"/>
    </clipPath>
    <clipPath id="clippath-18">
      <rect class="cls-15" y="121.9" width="178.9" height="268.3"/>
    </clipPath>
    <clipPath id="clippath-19">
      <rect class="cls-15" y="121.9" width="178.9" height="268.3"/>
    </clipPath>
    <clipPath id="clippath-20">
      <rect class="cls-15" y="121.9" width="178.9" height="268.3"/>
    </clipPath>
    <clipPath id="clippath-21">
      <rect class="cls-15" y="121.9" width="178.9" height="268.3"/>
    </clipPath>
    <clipPath id="clippath-22">
      <rect class="cls-15" y="121.9" width="178.9" height="268.3"/>
    </clipPath>
    <clipPath id="clippath-23">
      <rect class="cls-15" y="121.9" width="178.9" height="268.3"/>
    </clipPath>
    <clipPath id="clippath-24">
      <rect class="cls-15" y="121.9" width="178.9" height="268.3"/>
    </clipPath>
    <clipPath id="clippath-25">
      <rect class="cls-15" y="121.9" width="178.9" height="268.3"/>
    </clipPath>
    <clipPath id="clippath-26">
      <rect class="cls-15" y="121.9" width="178.9" height="268.3"/>
    </clipPath>
    <clipPath id="clippath-27">
      <rect class="cls-15" y="121.9" width="178.9" height="268.3"/>
    </clipPath>
    <clipPath id="clippath-28">
      <rect class="cls-15" y="121.9" width="178.9" height="268.3"/>
    </clipPath>
    <clipPath id="clippath-29">
      <rect class="cls-15" y="121.9" width="178.9" height="268.3"/>
    </clipPath>
  </defs>
  <!-- Generator: Adobe Illustrator 28.7.1, SVG Export Plug-In . SVG Version: 1.2.0 Build 142)  -->
  <g>
    <g id="Ebene_1">
      <g>
        <g>
          <path class="cls-26" d="M210.5,351.3v-180.8h77.1c34.4,0,51.6,14.5,51.6,43.4s-16.8,40.9-50.4,52.2l62.1,85.2h-30.8l-57.5-81.3v-15.3c34.6-5.5,51.8-18.7,51.8-39.8s-9.6-25-28.8-25h-51.6v161.4h-23.4Z"/>
          <path class="cls-26" d="M512,344.3c-14.6,5.6-30.3,8.3-47.2,8.3-65.5,0-98.2-31.4-98.2-94.2s31.6-89.1,94.8-89.1,35,2.5,50.6,7.6v20.2c-15.6-5.9-31.6-8.9-48-8.9-49.3,0-74,23.4-74,70.2s24.3,75.2,72.8,75.2,16.3-1,25.8-3v-61.4h23.4v75.1h0Z"/>
        </g>
        <g id="g5438">
          <g class="cls-32">
            <path id="path5446" class="cls-26" d="M69.8,147.6c.9,1.7,2.4,3.8,1.8,6.1-.5.2-.6.3-1.4.3-1.1-.8-2.3-1.6-3.4-2.5-5.7-6.1-8.5-14.6-12-22.1"/>
          </g>
          <g class="cls-17">
            <path id="path5448" class="cls-26" d="M100.7,147.1c0,1,0,2.1,0,3.1,1,4.3,2,8.4,3.4,12.4.6,1.7,1.5,3.6,1.7,5.5-.4.2-.5.4-1.2.4-.7-.6-1.4-.7-2-1.6-2-2.9-2.3-6.9-3.3-10.8-.9-3.7-.8-7.9-1.7-11.8-.3-1.3-.1-2.6-.4-3.8,0-.6,0-1.3,0-1.9-.3-1.5-.7-3.3-.7-4.9,0-2.4,3.2,5.8,3.2,6.8"/>
          </g>
          <g class="cls-28">
            <path id="path5450" class="cls-26" d="M129.8,132.8c-.1.8-.3,1.6-.4,2.4-.7,2.2-1.2,4.3-2.1,6.3-.5,1.2-1.4,2.3-2.1,3.4-.7,1.1-1.3,2.4-2,3.5-.9,1.4-1.3,3-2.2,4.4-1.1,1.7-2,3.8-3,5.6-.8,1.5-1.4,3-2.1,4.6-.3.7-.9,1.5-1.2,2.2-.3.7-.6,2.2-1.3,2.5-.1,0,0,0-.3,0-.2-1.2.4-3.1.7-4.3.4-2.5.9-4.9,1.3-7.4"/>
          </g>
          <g class="cls-21">
            <path id="path5452" class="cls-26" d="M88.2,176.5h-.5c-2.6-4.1-7.8-6.8-14.5-5-2.1.6-6.7,2.5-9.1,1.7-2.4-.8-4.3-2.4-6.3-3.7-4-2.7-7.7-5.4-11.6-8.2-2.4-1.7-4.9-3.6-8-4.6-1.9-.6-4.9.2-6.7.6-3,.3-6,.7-8.9,1-.8,0-1.6,0-2.4,0-1.4.3-5.4.7-6.8.5,0-.1,0-.2,0-.4,0,0,.2,0,.3,0,.8-.6,2.2-.5,3.3-.8,2.3-.6,4.7-1,7.1-1.7,3.3-.9,6.6-1.9,10-2.7,3.6-.9,8.7.5,10.6,1.9.9.9,1.9,1.9,2.8,2.8,3.5,2.7,6.8,5.4,10.5,7.9,1.5,1,3,2.3,4.8,2.9,1.2.4,3.4.1,4.5,0l3.4-.3c1.5-.3,5.5-.8,7.3-.4,2.4.6,4,1.8,5.7,3.1.5.5,1,1.1,1.5,1.6.9.7,3.1,2.4,3.2,3.9"/>
          </g>
          <g class="cls-7">
            <path id="path5454" class="cls-26" d="M45.3,176.7c4.1,0,8.2.5,7.3,5h-.2c-.4.2-1.9-.2-2.5-.3-1.6-.4-3,0-4.7-.4-.7-.1-2.1-.3-2.8-.2-3.3.7-6.6.6-9.7,1.4-1.8.4-3.8.5-5.7,1-3.5.9-7.4,1-10.9,0-1.8-.5-3.4-.9-5-1.5C10.4,181.4,0,178,0,177.1c.2,0,10.1,3.4,10.5,3.4.7.5,3.6.5,4.7.8,2.8.7,6.6.3,9.4-.4,1.2-.3,2.2-.2,3.4-.5,3.3-.8,6.9-1.3,10-2.3,1.7-.5,3.5-.8,5.2-1.2.6-.2,1.6,0,2.1-.3"/>
          </g>
          <g class="cls-18">
            <path id="path5456" class="cls-26" d="M39.1,182.6c3.6,0,6.8.2,9.4,1.1,1.1.3,2.4.6,2.8,1.6.2.3.2.8.2,1.3-.3.3-.4.7-.6,1-.3.4-.9.6-1.3,1-.6,0-1.1-.1-1.7-.2h0c0,0,.2,0,.2,0,.5.4,1.1.6,1.6,1,0,.3,0,.4-.3.5-.5.5-2,.3-3,.3-1.9,0-3.7-.1-5.6-.2h-1.8c-4,.9-7.5,2.2-11.1,3.4-1,.2-1.9.3-2.9.5-.9.2-2.5,0-3.3,0-.6,0-1.2,0-1.8,0-1.9-.5-4.3-.6-5.6-1.7.2-.2.1-.2.5-.3.6.5,4.8.4,5.9.2l4.8-.7c3-.8,5.8-1.5,8.3-2.6.8-.3,2-.5,2.7-1-2,0-3.8,0-5.5.4-3,.8-6.7,1.8-10.4.8-1.3-.3-4.6-.6-4.6-1.8,4.1-.7,8.5-.5,12.2-1.6,2.1-.6,3.9-1.4,5.8-2,1-.2,2.1-.5,3.1-.7.6-.1,1.5,0,2-.2"/>
          </g>
          <g class="cls-2">
            <path id="path5458" class="cls-26" d="M46.5,208.4c0-1.5,1-2.1,1.6-3.1.6-1.1,1.1-2.1,1.7-3.1,1.4-2.2,2.6-4.5,4.1-6.6.5-.8.9-1.6,1.7-2.2,1.4-1,3-1.5,4.9-2.1,1.2-.4,2.9-1,4.3-.8,0,.2,0,.3,0,.6-3,1.4-4.9,3.2-7.4,5.1-.9.9-1.8,1.8-2.7,2.7-1.1.8-2,1.9-3,2.9-.4.4-.9.8-1.3,1.2-1,1.3-1.9,2.5-2.8,3.9-.3.6-.4,1.4-1.2,1.5"/>
          </g>
          <g class="cls-3">
            <path id="path5460" class="cls-26" d="M48.2,213.9v-.6c.8-.6,1.2-1.8,1.8-2.7.9-1.2,1.9-2.4,2.8-3.6.6-.8,1.2-2,2.4-2.2.1.2.2.2.2.6-.5.6-.9,1.4-1.3,2.1h.2c.3-.4.8-.5,1.3-.8.9-.6,1.8-1.3,2.8-1.9,1.2-.8,2.3-1.8,3.5-2.6,1.6-1,3.4-1.6,5.2-2.4.9-.4,1.8-.9,2.9-1.2.1.2.2.2,0,.4-.4.6-1.2.8-1.9,1.2-1.5.9-3,1.8-4.5,2.7-2.5,1.6-4.5,3.7-6.8,5.4-1.4,1-2.9,1.8-4.3,2.8-1.1.7-3,2.7-4.4,2.8"/>
          </g>
          <g class="cls-20">
            <path id="path5462" class="cls-26" d="M34.5,201c1-.7,4.1-1.9,5.2-2.5.8-.5,6.8-6.9,7.9-7,0,.2-4.9,9.6-4.9,10-.2.8-.5,1.5-.7,2.3-.6,1.5-1.6,3-2.9,3.9-5.2,3.7-13.9-.6-18.2-2.5-2.8-1.2-5.3-2.7-7.9-4.2-.7-.4-9.6-2.1-9.2-3,1.7.4,11,1.2,12.7,1.9,3,1.3,7.2,1.1,10.5,2.1"/>
          </g>
          <g class="cls-10">
            <path id="path5464" class="cls-26" d="M96.6,200.7h8.9c1.5,0,3.3-.2,4.6,0,1.2.2,2.7-.1,3.7,0h1.6c1.5,0,3.1,0,4.5.2h2.4c1.8.4,4.1,0,6,.4,1.5,0,3,.1,4.5.2,3.5.8,7.6.4,11,1.2.7,0,1.5.1,2.2.2,2.6.6,5.4.9,7.7,1.7.9.3,2.7.4,2.8,1.5-.3.1-.5.2-1,.2-.5-.3-1.3,0-1.9-.2-1.4-.3-3-.4-4.5-.8-1.6-.4-3.4-.8-5.1-1.2-1.2-.3-2.3,0-3.6-.2-.7-.1-2-.1-2.7,0-.8.2-1.9,0-2.6,0-1,.2-2,0-2.9.2-1.5.3-3,0-4.3.4-2.1.5-4.3.2-6.4.7-2.7.6-7.8-.3-10-.8-3.2-.5-6.4-.9-9.6-1.4-1,0-1.9-.1-2.9-.2-1.2-.2-5-.6-6.4-.3-1.2.3-2.6,0-3.8.3-3.5.8-7.1.8-10.4,1.8-2.6.7-5.3,1.1-7.9,1.9-1.3.4-2.7,1-4.3,1.1,0-.2-.1-.2-.2-.4.6-.6,1-1.4,1.8-1.9,3.6-2.4,8.7-2.7,13.5-3.8,1.5-.3,3.1-.2,4.5-.5,3.6-.2,7.2-.4,10.8-.6"/>
          </g>
          <g class="cls-11">
            <path id="path5466" class="cls-26" d="M44.1,205q.2,0,.3,0c.2.3.5,3.2.4,3.5-.3.7-3.7,2.5-4.5,3.1-2.9,1.9-5.8,3.8-8.9,5.7-1.3.8-2.8,2-4.4,2.5-2.4.7-4.4-1.3-5.7-2.2-.6-.4-1.5-.9-1.6-1.8.2,0,.5,0,.8,0,1.3.9,6.3.2,7.7-.2,4.1-1.4,7.2-4,10.3-6.3,1.8-1.3,4-2.7,5.5-4.3"/>
          </g>
          <g class="cls-14">
            <path id="path5468" class="cls-26" d="M45.3,208.9c.4.1.4.2.4.7-.3.4-.2,1-.4,1.6-.5,1.5-.8,3.2-1.3,4.8-.2.7-.1,1.4-.5,2-.4.6-1.1,1.1-1.5,1.7-2.3,3.1-5.1,5.7-8.5,7.8-.9.5-3.5,1.9-5.1,1.6-3.6-.8-6.5-1.9-9.4-3.2-2.2-1-4.3-2-6.3-3.2-.6-.4-1.7-.5-1.8-1.4.2,0,.2,0,.5,0,.3.3.8.2,1.3.4,1.4.5,2.9.8,4.4,1.3,1.4.4,3.1.8,4.6,1.2,6.7,1.7,11.3-2.7,14-6.3.6-.8,1.5-1.5,2.1-2.3.4-.3.8-.7,1.2-1,1.4-1.4,2.9-3,4.5-4.2.6-.4,1.3-.9,1.8-1.4"/>
          </g>
          <g class="cls-23">
            <path id="path5470" class="cls-26" d="M97.6,210.8c.5,0,.8,0,1,.3,0,.1,0,0,0,.3-1.1.2-2.2.3-3.3.5-1.9.4-3.9.3-5.7.7-.9,0-1.7.1-2.6.2-2.1.5-4.6.4-6.7.9-2.4,0-4.7,0-7.1,0l-3.9.4c-2.3.5-4.5.9-6.5,1.8-1.5.6-3,1.6-4.3,2.5-.5.4-1,1-1.5,1.4-.7.6-1.6,1.3-2.2,2-.4.6-2,2.9-2.5,3.2-.1,0-.2,0-.4,0,0-.2,0,0,0-.2,1.3-5.2,7.4-10.2,12.3-11.8,1.5-.5,3.1-.4,4.7-.8.9,0,1.7,0,2.6,0,.5-.1,1.4,0,2.1,0,.9-.2,2.3,0,3.4,0,2.2,0,5.5,0,7.5-.4h1.8c2.5-.5,5.5,0,8.1-.6,1-.2,2.4.3,3.2-.2"/>
          </g>
          <g class="cls-30">
            <path id="path5472" class="cls-26" d="M96,213.9v-.4c0,0,.2,0,.3,0,.7-.5,1.8-.4,2.8-.7,1.4-.4,3.1-.6,4.6-.9.9,0,1.7,0,2.6,0,.6-.1,1.7-.2,2.5,0,3,.7,6.3,1,9.4,1.8,1.6.4,3.2.3,4.8.6,1.4,0,2.7.1,4.1.2h1.6c2.5.5,5.3.3,7.7.9.8,0,1.6.1,2.4.2,2.2.3,4.3.7,6.5,1,1.1.2,2.5,0,3.3.6,0,0,0,0,0,.3h0c-1.1.2-2.9.1-4.1,0-1.2-.2-2.4,0-3.5-.2h-1.7c-1.5-.3-3.4,0-4.9-.4h-1.6c-2-.4-4.4,0-6.5-.5-1.2-.3-2.8.1-3.9,0h-2.1c-.9-.2-1.9,0-2.9-.3-2.6-.6-5.4-1-8.2-1.6-1-.2-2.1,0-3-.3h-1.8c-1-.2-3.9-.3-5.1,0-1,.2-2.4.3-3.4.2"/>
          </g>
          <g class="cls-24">
            <path id="path5474" class="cls-26" d="M113.1,238.7c-.4.7-.2,1.9-.4,2.7-.5,1.9-.7,4.4-1.6,6,0,0,0,0,0,0-.2-.1-.1,0-.2-.4.4-.7.4-2.5.6-3.5.4-1.7.8-4.1.5-6.3,0-.7-.3-2,0-2.8.2-1,.2-2.4.3-3.5-.9-.2-1.8-.7-2.7-1-1.9-.5-3.8-.9-5.8-1.4-1.7-.2-3.4-.5-5.1-.7h-1.1c-1-.2-2.4-.3-3.5-.3h-1.9c-1.3-.3-3,0-4.5,0-2.6,0-5.4,0-8,.2-2.4.1-4.1-.2-5.8-.8-.6-.2-1.6-.9-2.5-.7-2.2.5-4.8,1.3-6.5,2.5-.6.4-1.1,1.1-1.7,1.5-1.2.8-2.4,1.5-3.6,2.3-.8.5-1.5,1.2-2.5,1.5,0-.2-.1-.2-.2-.4h0c.3-.8,2.2-2.1,3-2.7.7-.5,1.2-1.2,1.9-1.7,2.6-1.9,5.2-3.5,8.4-4.9,1-.3,2.1-.7,3.1-1,.5-.1,1,0,1.3-.2.8,0,1.7,0,2.4,0,0,.2,0,.3,0,.6-.6.3-1.2.7-1.9,1h0c0,0,1.4,0,1.4,0,.7.4,3,.1,4,.2,2.2.2,5.2-.3,7.4.2h2.2c3.7.8,7.7.5,11.4,1.4,1.6.3,3,.2,4.5.6,2.3.6,4.2,1.6,6.1,2.7,0-.6,0-1.9.4-2.3.1,0,.2,0,.4,0v.2"/>
          </g>
          <g class="cls-5">
            <path id="path5476" class="cls-26" d="M128.8,232.8c0,0,0,0-.2,0,0,2.9-.2,6.1,0,9,0,1.8-.1,3.6.2,5.2.3,1.3,0,3.5.6,4.5v.4c-.2,0-.3,0-.6,0,0,.8.6.6.9,1.1.3.6.1,1.5.5,2h0c-.7,0-2-1.1-2.5-1.6h-.2c.2,1.2,1.3,1.7,1.9,2.5.3.4.4.8.7,1.1-.1.9-1.1,1.4-1.6,1.9-.8.8-1.9,1.9-2.6,2.8-.5.6-1,1.5-1.7,1.9,0,.2,0,.4,0,.5.3.3,1.1.3,1.7.3,0,0,0,0,0,0,0,.5-.4,1.2-.2,1.6.1.2,1.6.9,1.9,1.1,0,1-.2,1.7.2,2.4.8.3,2.2.3,3.3.3h0c-.8.4-1.3,1.2-1.9,1.8.1.8.7,1.4,1.1,2,.8,1.3,1.5,2.7,2.3,4,1.2,2,2,4.3,3.2,6.3,2.9,4.6,6.5,8.5,11.1,11.4,1.8,1.1,4.1,1.2,6.2,2.1,2.3,1,4.2,2.6,5.8,4.3.2,0,.2,0,.4,0-.1-1.2-1.1-2.3-1.7-3.2-1.1-1.8-2.1-3.4-3.3-5.1-.6-.8-1.1-1.8-1.9-2.4v-.2c2,0,4.4,0,6.3-.3,0-.3,0-.1,0-.3-.3-.5-3.5-.6-4.3-.8-3.2-.9-6.2-1.7-8.7-3.3-2.5-1.6-4-3.7-5.8-6-.6-.8-2-2-2.8-2.6-.2-.2-.6-.3-.8-.5-.2-.3-.2-.6-.4-.9-.6-1-1.3-2-1.9-3-.3-.4-.3-.9-.5-1.4-.4-.8-.9-1.5-1.5-2.1.2-.9,2.3-1.2,3.1-1.9h.3c-.1.7-.2,1.8.2,2.3.5,1.6,3.1,1.1,4.5,1.9,2.5-.2.3-3.2.8-4.5.6-1.7,2.4-2.1,3.3-3.4h0c0,1-.2,1.8,0,2.8.4,1.8,1.5,3.6,3,4.4v.2c-.7,0-1.8.1-2.2-.2-.3,0-.6,0-.8,0,0,.2,0,.3,0,.4.5,1,4.8,2,6.9,1.6,1.2-.3,2.6-.4,3.5-1,1.2-.8,3-4,3.4-5.7.3.2.4.4.6.7.6.8,2.4,2.8,3.4,3.1.6.4,2.3-.2,2.8-.6.3,0,.6,0,.8,0,.6,1.7.4,3.8,1.3,5.2,1.5,2.2,7.9,2.9,11.7,2.4,0,0,0,0,0,0q0-.2,0-.3c-.5-.4-1.6-.2-2.4-.4-1.2-.3-2.4-.5-3.5-1-1.4-.6-2.5-1.7-3.3-2.9-.3-.4-.4-.9-.7-1.3,0-.6,0-1.2.6-1.1,1.1.2,1.4,2.6,3.9,1.9.4-.1.7-.4,1-.6,0-1.7-1.2-2.1-1.9-3.1-.4-.6-.6-1.3-1.1-1.9,0-1,.7-.8,1.4-1.2.3-.2.5-.5.8-.7,0-.3,0-.3-.2-.5-.6.1-1.8.9-2.6.4-.2-.2-.3-.7-.5-.9,0-.8.4-1,.9-1.3-.1-.6-1.6-.9-2.1-1.2.1-.3.3-.3.5-.6,2,0,1.9,1,3.1,1.5.4.2,2.7-1.3,3.2-1.6,0-.2,0-.2,0-.4-.5,0-1.1.2-1.5,0-.8-.3-1.1-2-.7-3.1.2-.5.6-.8.8-1.3,0,0,0,0,0,0h0v-.2c-1,0-1.7.3-2.6.5-2.4.5-3.8-1.4-4.2-3.1-.3-1.4.6-4.1.2-4.9v-.2c-1,0-1.1,1.1-1.5,1.7-.8,1.2-1.5,2.3-3.5,2.3-1.2-1.2-1.5-1.3-2-3.3-.2-.9,0-2.7-.4-3.4v-.2c-.9,0-.7,1-1,1.6-.3.8-.9,1.2-1.5,1.8-.6-.1-1.1-.2-1.7-.4-.6,0-1.3,0-1.9,0-1.1-1.1-1.6-2.5-2.4-3.9-.2,0-.2,0-.4,0-.1.7-.3,1.7-.7,2.2h0c-1.5-.4-2.9-1.4-4.2-2.2-.5-.3-1.2-.3-1.7-.7-.6,0-.7.1-1.1.3-.2.6,0,1.4-.2,2.2,0,.4-.3.7-.5,1-1.9,0-3.2-1-5.2-1,0,.3,0,.1,0,.3.1.4.8.7,1.2.8,0,.2,0,0,0,.2,0,.4-.1.3-.3.6-1.3,0-2.3-.2-2.9-.8h-.7c0,.3,0,.1,0,.3.2.4,1,.8,1.4,1,0,.2,0,0,0,.2,0,2.1-1.7,1.3-3,2.1-.6,0-1.1,0-1.4.2.2.8,1.4.8,2,1.2l.7.7c0,.3,0,.4,0,.6-.1.3-.2.4-.5.5-.7.5-1.8-.2-2.6-.3-.2-.8-.7-1.7-1-2.5-.5-1.5-.6-3.1-1-4.7v-1c-.4-2.1,0-4.5-.5-6.5-.3-1.4,0-5.2-.6-6.1-.1-.2,0-.1-.3-.2h0ZM153.6,259.5c5.1,0,9.1.6,11.2,3.5.4.5.7,1.2,1,1.8.1.4,0,.9.3,1.2,0,.5,0,1.3-.2,1.6,0,0,0,0,0,0-1-1.6-3-3.8-4.7-4.8-.8-.5-1.8-.5-2.6-1-.7-.4-1.4-1-2.4-1.3-2.5-.7-6.6,0-8.6.7-1.3.4-3.4.6-4.3,1.4h-.2c1.8-.7,3.4-2,5.4-2.6,1.7-.2,3.4-.4,5.2-.6h0ZM149.1,262.4c0,0,.2,0,.2,0,.4,0,.4,0,.6.2,0,.6,0,.7-.3,1-.4,0-.8.2-1.4.2,0-.3,0-.5,0-.7,0-.3,0-.4,0-.6.2,0,.5-.2.7-.2h0Z"/>
          </g>
          <g class="cls-27">
            <path id="path5478" class="cls-26" d="M79,233.2c-.7,0-1,.3-1.5.5-.9.2-1.7.5-2.6.7-1.9.3-3.7.5-5.6.8-1.1.4-2.1,1.6-2.7,2.6-.8,1.3-1.4,3-1.8,4.7-.2.8-.2,2,.2,2.6.6.9,2.3.9,3.8.9,0,.3,0,.6,0,1,.2,5.4-3.2,5-6.8,6.5,0,.2,0,.3,0,.4,1.7.3,2.9.6,4.1,1.3,0,1.8-1.1,2.5-1.9,3.6-1.8,2.6-3.6,4.8-5.8,6.9-.8.8-1.8,2-2.9,2.4-.8.2-1.5-.2-1.9-.4-.9-.5-1.7-1-2.5-1.6-.5-.4-.7-.8-1.3-1.1,0,0-.1.1-.2.2.3,1.1,3.3,4.8,4.3,5.4.4.2,1.2.6,1.9.4,1.6-.3,2.4-1.3,3.5-2.1.4-.2.8-.3,1.2-.6h.6c.4,1.9-1.3,2.6-2.5,3.3-2.8,1.5-5.7,1.6-8.7.3-.8-.3-1.8-.6-2.4-1.2-.3,0-.3,0-.5,0,0,.7.4.9.7,1.3.7.9,1.6,1.8,2.7,2.3,1.8.7,6.7.5,8.6,0,.7-.2,4.1-.9,5.1-.3.5,0,.6,0,.9-.2-.1-.7-1-.7-1.5-1.1-.3-.2-.4-.6-.6-.9,0-.4,0-.7.3-.9.3-1,1.8-1,2.9-1,.4-1.1.8-2.1,1.4-3,.3-.4.8-.6,1.2-.9.9,0,1.1,1.2,1.5,1.9.4,0,.9,0,1.3,0,1,.3,2.4,1.5,2.9,2.3.2,0,.3,0,.5,0-.1-.6-.4-.4-.6-.8-.8-1.3-1.6-2.4-1.6-4.6.4-.5.6-1,1.2-1.3,0,0,0,0,0,0,1.5,3.2,5.9,8,11.1,6.3.6-.2,1.3-.5,1.8-.9,1.1-.8,1.8-2.4,2.2-4,.2-.7,0-1.6.4-2.1,0,0,0,0,0,0,.6.8,1.3,1.6,1.7,2.7.5,1.5.5,3,1.4,4.1,1.6-.2,2.1-3,2.6-4.4.3,0,.8-.2,1,0,1.1.1.6,1.8.3,2.5-1,1.9-3.3,3.3-5.3,4.2,0,.4,0,.4.2.5.5.2,1.7-.3,2.2-.5,2.5-.9,3.9-1.9,4.9-4.4,1.3,0,4,.1,4.8.7,1.3.5.3,2.6,1,3.8,0,0,0,.2,0,.3.2,0,.3,0,.4,0,.5-.3.6-.9.9-1.4.8-1.6.8-3.7,0-5.3-.5-.9-1.5-1.5-1.5-2.9.8,0,1.1.4,1.6.8,1.9,1.2,1.9,2.3,2.5,4.8.2.9,0,2.7.3,3.4v.2h.5c.2-1,1.1-4.8,1.6-5.4.3-.6,1.3-.7,2.1-.9,1.7-.5,4.2-.7,5.8-1.5,0-.2,0-.3,0-.4-1.7.2-4.6.8-6.5.4-.8-.2-1.4,0-1.9-.3,0,0-.1,0-.2,0,.2-.8,1.7-.7,2.4-.8h0q0-.3,0-.4c-.7-.5-1.8.2-2.5-.4-.2,0,0,0-.2,0,1.9-.9,4.5-1.5,6.8-2,0-.3,0-.1,0-.3v-.2c-1.7,0-3.5,0-5,.4-.5.1-1.5.7-2.1.3-.2,0-.2-.1-.4-.2,0-.3-.2-1.1,0-1.4.3-2.9,5.4-.8,7-1.4.1-.3.3-.6,0-.9-.2-.7-.8-.7-1.5-1-3.2-1.2-4,.5-6,1.7-.5.3-.9.2-1.5.2-.3-.3-.7-.6-1-.8,0-1.6,2.9-2.6,4.2-3.1.6-.2,1.2-.1,1.5-.7,0,0,0,0,0,0h0v-.2c-2.9,0-5.3,1.1-8.4,1.1,0-1.4,1.1-3.6,1.9-4.4,0-.3,0-.3,0-.5-1,.1-1.3,1.3-2,1.8-.4.3-.8.5-1.3.8-.3.2-1,.7-1.6.3-.3-.1-.3-.3-.5-.5,0-1.2.4-1.4.8-2.1.5-.8,1-2.1,1.2-3.1,0,0,0,0,0-.2-.2,0-.3,0-.4,0-1,.5-1.3,2.8-2,3.7,0,0,0,0,0,0h0c-.4-.4-.3-1.2-.9-1.4,0,0,0,0-.2,0,0,0-.1.1-.2.2-.2.3-.2.9-.2,1.5,0,0,0,0,0,0-3,0-6.2-3.7-7.6-5.6-.5-.7-1.3-1.3-1.4-2.4,2.9,0,5.2,1.4,7.3,2.5.8.4,1.7.5,2.3,1.1.3,0,.3,0,.5,0-.1-.9-1.3-1.4-1.9-1.8-1.5-1.1-2.9-2.3-4.5-3.4-.7-.5-1.3-1.2-2.3-1.5-1.6-.5-3.2.5-4.9,0-.8-.2-1.4-.5-2-.8-.3-1.3.7-2.4,1.5-3,0-.2,0-.3,0-.5-1,.1-1.7.7-2.4,1.1-1.6.8-4.8,2.3-6.8,2.2.4-1.3,2.7-2.7,3.7-3.6,0-.2,0-.3,0-.4h0ZM81.2,253.3c1.7,0,3,.1,3.7,1.1.2.2.2.5.4.7,0,.2,0,.3,0,.5-1,.4-2.1.3-3.3.6-2.7.7-6.1.8-8.8,1.5-1,.3-2.3.2-3.1.8h-.3c1.1-1.8,3.6-3.9,5.9-4.6,1.8-.5,4.3,0,5.1,1.1.2,0,.3,0,.5,0,0-.5,0-.9,0-1.6h0ZM80.6,259.2h.7c0,0,.2.2.3.3v1.2c-.9.2-2.4,0-1.3-1.1,0-.3.1-.2.3-.4h0Z"/>
          </g>
          <g class="cls-4">
            <path id="path5480" class="cls-26" d="M115,379.7c3.7.8,7.4,2.6,10.9,3.6,1.4.4,4.2,1.1,5.8.7,2.7-.7,4.8-2.1,6.8-3.5,4.1-2.8,7.9-5.7,9.5-10.9.6-1.7,1.1-5.6.6-7.9-.3-1.3-3.5-3.1-2.8-4.7,1-2.4,9.5-2.8,8.9-4.3-.7-1.7,3.7-3.5,6.4-3.6,0,.2,0,.6,0,1-1.1,1.2-5.3,4.9-5.9,6.4-.4.9-.3,0-.6,1-.5,1.8-.7,3.9-1.2,5.7-.1.9-.3,1.8-.4,2.7-.4,1.4-.9,2.9-1.3,4.3-.4,1-1,2.1-1.3,3.3h0c.6-1,1.7-1.8,2.5-2.6.7-.8,1.5-1.6,2.2-2.4.4-.4.9-.8,1.3-1.2,1-1.3,2.4-2.4,3.4-3.7,1.6-2.1,3.2-4.1,4.8-6.2.5-.7,1.3-1.3,1.8-2,.8-1.1,1.9-2.3,2.5-3.6.4-1,1.3-3.1,2.3-3.6v.6c-.3.5-.6,1.6-.8,2.2,0,.2,0,.4,0,.6-.2.8-.9,1.8-1.3,2.6-.3.8-.5,1.6-1,2.3-1,1.5-2.5,2.8-3.6,4.3-.6.6-1.2,1.2-1.8,1.8-2,3-4.3,5.5-6.5,8.3-.8,1-1.9,1.8-2.7,2.8-1,1.4-2.3,2.5-3.5,3.7-.9.9-1.7,1.9-2.8,2.7-.6.6-1.2,1.2-1.8,1.8-2.2,1.7-4.3,3.6-7,4.8-2.6,1.1-5.7,1.6-8.7,2.4-1.4.4-3,.3-4.4.6l-4.1.3h-1.9c-1.7.3-6.6.2-8.2,0-1-.2-2.4,0-3.3,0h-6.3c-.9-.2-2,0-3-.2-1.8-.4-3.6-.4-5.3-1-7-2.3-10.7-7.6-16-11.5-2.4-1.8-4.5-4-7-5.8-8.5-6.3-16.8-14.1-21.3-24.3-3.3-7.4-6.3-15.1-8.9-23.2-1.1-3.4-1.8-7.1-2.9-10.5-.4-1.7-.8-3.3-1.2-5-.6-1.1-2.3-2.5-3.4-3.3-2-1.5-4.8-4.4-5.8-6.8-.4-1.1-.2-2.7-.2-4.1,0-2.9.2-5.8.3-8.7,0-1.3.2-2.9-.2-3.9-.5-1.2-1.4-2.3-2.1-3.3-1.4-2.3-2.8-4.8-3.9-7.4-1.3-3.2-1.2-7.9-2.5-11-.9-2.2-1.8-4.2-2.5-6.7-.2-.8-.6-2.1-.3-3.1.4-1.3,2.6-4.9,4.4-3.7,1.5,1,1.6,2.9,2.6,4.4.5.8,1.6.8,1.6,2,0,0,0,0,0,.2-.3.2-1.6.8-1.7,1h.2c.7.7,2.1,1.2,3.2,1.5,1.3.3,2.8-.4,3.3,1,1,1.3-.9,3.1-.3,4.9.5,1.4,2.5,1.6,2.9,3.1.2.9-.2,3.1-.4,3.9,0,.5,0,1.1,0,1.6-.3,2.1-.6,4.1-.9,6.2-.1,0-.2,0-.4,0,0,0,0-.2,0-.3-.5-.7-.4-2-.7-2.8-.8-2-2.5-4.2-5.3-4.3,0,.2,0,.2,0,.5.8,1.2.9,2.7,1.5,4.1.9,2.2,2.7,3.9,3.3,6.4.2.9,0,2.6,0,3.4v4c0,2.4-.3,5.4.2,7.5,0,.5,0,.9,0,1.4.4,1.3,1.5,2.2,2.4,3.1,1.4,1.5,2.9,3.4,4.8,4.4v-.5c.4-.6,0-3.9,0-4.9-1.1-.3-1.8-1.1-2.6-1.7-3.7-2.7-3.9-8.1-2.5-13.4h.6c.4,2.3,2.1,3.6,3.2,5.3h0v-.2c.4-.6,0-2.1,0-2.8,0-2.2-1.2-4.1-.6-6.8.8-3.7.7-8.5,0-12.2-.2-1.5-.3-3-.5-4.6-.6-2.6-1.2-5.6-1.9-8.2-.9-3-1.2-6.2-2.8-8.5-1.8-2.6-6.2-5.3-8.9-7.1-3.3-2.1-7.2-3.4-11.4-4.8-1-.3-4.5-.8-4.7-1.7,0,0,.2,0,.3,0,.3-.2,1.5,0,2.1,0,1.9,0,3.9.1,5.6.5.9,0,1.8.2,2.7.3,2.7.7,4.9,1.3,6.8,2.7,2.9,2.1,4.7,6.2,8.3,7.6,1.1.4,2.8.2,3.8,0,2.6-.8,4.6-1.8,6.6-3.1.7-.4,1.7-.8,2.2-1.5.4-.6.6-1.6.6-2.5-.3,0-.7,0-1.1,0-.5.3-1.2.2-1.8.4-.9.3-1.8.8-2.9.9,0-.2,0-.2,0-.5,2.1-1.2,4.9-2.4,6.2-4.5.4-.7.4-1.4.6-2.3.6-2.3.6-5.3,1.5-7.4.5-1.1,1.3-1.9,2-2.8,1.3-1.7,2.6-3.2,4.1-4.8,0,0,.2,0,.3,0v.6c-.6.8-.8,2.2-1.1,3.3-.3,1.2-.5,2.5-.8,3.9v2.4c-.1.6-.5,2.4-.4,3,.3,1.3.7,2.7,1.1,3.9.4,1.3.9,4,2,4.4.8.6,2.8.4,4.2.4,0,.2,0,.2,0,.5-.6.7-.8,1.7-1.2,2.6-.8,1.7-1.6,3.6-2.2,5.6-.7,2.1-.9,4.5-1.5,6.6-.4,1.3-.6,2.5-1,3.7-.2.7,0,1.4-.9,1.5v-.2c-.3-.5,0-1.3,0-1.9v-4.8c0-3,.2-7.1-.4-9.7-.3-1.6,0-3.4-.4-4.9-.3-1.3.1-3.8-.5-4.7-.2,3-2,5.5-3.9,6.9-.6.4-1.6.9-2.1,1.5-.6.8-.8,1.9-1.4,2.8-1.6,2.6-2.8,5.6-3.6,8.9v2.6c0,1.6.1,3.4-.2,4.8,0,.8,0,1.5,0,2.3-.2,1-.1,2.1-.4,3.1-.2.8-.5,1.9-.7,2.6-.1.6,0,1.4,0,1.8.1,1.5,0,3.1.2,4.5.2.7,0,1.8,0,2.4.4,1.7-.1,3.7.2,5.3v3.1c.2.8,0,2.1,0,3.1,0,2.3,0,4.6,0,7,0,1.2,0,2.4,0,3.6.4,1.7.7,3.7,1.2,5.5,0,.7.2,1.4.3,2.1.4,1.2.9,2.5,1.4,3.6.7,1.8,1.2,3.8,1.8,5.7.9,2.6,1.2,5.3,2.2,7.8,1.5,3.6,2.8,7.1,4.4,10.6.8,1.8,1.8,3.7,2.7,5.5.3.6.8,1.2,1,1.9h0v-.5c.4-.7.1-1.8.4-2.7.6-1.9,1.2-5.6,2.3-7,.2,0,.2,0,.3.2.4.6,0,1.8.3,2.7.3,1.3.4,3,.4,4.5.3.2.8,1.4,1.2,1.2.4-.6.4-1.7.8-2.3,1.1-1.7,2.9-3.2,4.6-4.5.6-.4,1.1-1.3,2-1.4,0,.2,0,.3,0,.6-.7.9-.9,2.1-1.4,3.2-1.8,4.3-4.7,12.8,1.9,14.3.1-.6.6-1,1.2-1.1,0,.2,0,.3,0,.6-.4.6-.3,1.6-.4,2.5-.2,1.8-.9,6.2.7,7.3,1.5,1,3.6-.1,5.1-.4,0-.7,0-1.5,0-2-.2-2.5-1.1-4.7-.2-7.3.3-.9.5-2.2,1.6-2.3.5,2.6,2.8,7,5.4,7.4h0c-1.5-2.2-2.2-9.2,1.5-9.2.2.2.6.3.9.4.6,1,.9,2.3,1.5,3.4.5.9,1.2,1.8,1.6,2.8.4,1,.6,2.2,1.2,3.1.7,1,2.3,1.7,3.6,2.2v-.2c-1.6-1.9-2.3-8-1.4-11.2.2-.8.4-3.2,1.1-3.1.2.1,0,0,.2.2.4.7,0,2.6.3,3.6.6,2.7,1,8.3,3.6,8.7.6-1.2.3-3,0-4.4-.4-1.9.5-4.5,1-5.7.3-.7.2-1.6,1.1-1.8,0,0,0,.2,0,.3.2.3,0,.8,0,1.2.2.9.3,2,.6,2.9.7,2,2,3.5,2.5,5.6.3,1.3-.8,3.9-.4,4.6.2-1.2,1.6-3.5,2.4-4.1.2-.2.5-.2.7-.4.9,0,1.9-.2,2.2.6.8,1.1-.5,3.9,0,5.6.3,1.1,1.2,1.6,2.2,2.1v-.2c-1.3-1.3-.6-5.2,0-6.6.3-.6.2-1.1,1-1.2.3.5.2,1.6.2,2.5.3.5.2,1.8.5,2.4.5,1.3,1.6,2,2.6,2.9.2,0,.5,0,.7,0,.9-3.3,1.6-6.8,2.7-9.8.3-.9.3-3,1.5-3.1,0,0,0,.2,0,.3.7,1,0,3,.4,4.4.2.9,0,2,.3,2.9.4,1.7,1,4.3,2.1,5.4.6-.5,1.3-.7,1.6-1.5.5-1.3,0-3.5-.2-4.8,0-.8,0-1.6,0-2.4-.4-1.9-.3-4.3-.3-6.5.2,0,.2-.1.4-.2,1.4,1.1,2.5,2.2,3.3,4,1.6,3.8.6,9.6-.9,12.6h.2c.4-.3,1-.4,1.5-.7,1.4-.7,4.4-2.2,4.9-3.7.3-.9,0-2.3-.2-3,0-.7-.1-1.4-.2-2.1-.4-1.5-.6-3.6-.3-5.3.3-.2.3-.3.8-.3,0,0,0,0,.2,0,1.3,2.1,1.8,4.7,2.5,7.7.2.9-.1,1.9-.2,2.5,0,.8.3,1.8.5,2.4,0,0,0,0,0-.2.9-1.1.9-3.6,2.7-3.8.5.5,1,.8,1.2,1.6.1.5,0,1.2.2,1.6.6-1.1,1.5-2.1,2.2-3.1.3-.5.3-.9,1.1-1,.7,1.8,1.1,2.8,2.9,3.6.3.1,1.1.7,1.4.5.6-.4,2.1-2.1,2.6-2.7.4-.5.7-1.3,1.6-1.4,0,.2,0,.3,0,.6-.2.3-.1.7-.3,1.1-.3,1-.7,2.3-1.3,3.1-1.1,1.7-5.8,2-8.7,2-1.1,1.7-3,2.9-4.2,4.5-.8,1.1-1.5,2.7-2.7,3.4-1.8,1.1-3.9,1.4-6.2,2-6.3,1.7-16.2,1.9-21.9-.4-2.9-1.2-5.1-2.9-7.5-4.7-.9-.7-2.2-2.7-3.6-2.8-.9-.6-3.8-.3-4.9,0-.2.3-.3.4-.3,1,.6.4,3.1,2.5,1.1,3.3-.6.6-1.9.2-2.5,0-.9-.4-1.7-.7-2.5-1.3-.7-.5-.9-1.2-2.1-1.3-.5.3-1.2.4-1.4,1-.8,1.1-.4,3.7,0,4.9,1.3,3.6,6.6,3.2,9.5,5.2,3.6,2.4,4.5,7.9,9.4,9,1.2.3,3.7-.6,4.8-.9,2.2-.5,4.7-2,7-2.5"/>
          </g>
          <g class="cls-6">
            <path id="path5482" class="cls-26" d="M58.6,244.1c.5,0,.6,0,1,.2,0,.3.2.5.3.7.1.5-.1,1.1-.2,1.5-.3,1.2,0,2.6.7,3.1.6.4,1.8.4,2.5.5,0,.1,0,.2,0,.4-.8,1.4-1.6,2.7-2.4,4.1,1.5,0,3.3.3,4.7.6v.5c-2.1,1.2-4.2,2.6-6.5,3.6-.6.2-2.1.3-2.4.8,0,.3.2.7.3,1,1.2.7,2.8.8,4.5,1.2v.5c-2.8,1.7-5.8.8-8.4-.5-.7-.4-1.9-.6-2-1.6-.6-.6-1.4-2.6-1.1-3.7.4-1.7.6-3.5,1.2-5.2,1-3.2,4.1-5.3,6.6-7.1.3-.2.8-.3,1.1-.6"/>
          </g>
          <g class="cls-25">
            <path id="path5494" class="cls-26" d="M19.5,267.5c.4,0,.5.1.5.6-.8.9-1.1,2.2-1.7,3.3-1.4,2.7-2.5,5.4-3.3,8.8-.3,1.1,0,2.9.2,3.8v1.6c.4,1.9.3,5.6-.2,7.3-.8,2.8-3.4,4.5-5.6,6-.9.6-1.8,2-3.2,2.1,0-.1,0-.2,0-.4,1-.6,1.9-1.7,2.6-2.6.4-.4.9-.9,1.3-1.3,1.3-1.8,2.5-3.6,3.1-6.1.3-1.3,0-3.1-.3-4.1,0-.6-.1-1.3-.2-1.9-.5-2.3-1.1-5.7-.4-8.2.8-3,3.4-6.4,5.6-8,.5-.4,1.2-.5,1.7-.9"/>
          </g>
          <g class="cls-19">
            <path id="path5496" class="cls-26" d="M101.3,268.2c.2,0,.3,0,.5,0,.3,1.1,1.2,3.5-.4,4.1-1.3,1.2-2.4-1-3.3-1.2-.2.3-.3.4-.3,1,0,.1,0,.5,0,.7.2.6.7,1,1.6,1,.2-.2.5-.3.9-.4,0,.2,0,.2,0,.5-.8.8-1.7,2.2-2.4,3.2-.3.4-.7.6-1.1.9-1.1,1.1-2.1,2.1-3.2,3.2-.9.9-1.7,1.8-2.5,2.8-.8,1.1-2,1.8-2.8,2.9-1.1,1.1-2.3,2.1-3.4,3.2-1.6,1.6-3.5,3.9-6.1,4.5-.7.2-5.6,3.7-6.1,3.6-.7-1.1,2.9-7.1,3.9-8.8.6-1.1,1.9-1.9,2.9-2.6,1.4-1,2.7-2.3,4.1-3.3,1.1-.8,2.8-1.3,2.8-3.3-.2-.2-.1-.4-.3-.6-.2-.3-.6-.4-.8-.6-.5,0-.8-.1-1.1,0-.3,0-.4.2-.5.5-.5.6,0,2.1-.2,2.9-.2,0,0,0-.2,0-.2,0-.4,0-.5-.2-.7-.7-.7-2.3-.9-3.5-.2-.1-.2-.2-.6-.2-.4.3-1,.3-1.4.6-.7.4-1.4,1-2.1,1.5-.3.2-1,.7-1.3.6-.2-.1-.1,0-.2-.3h0c.2-.6,1.7-2.1,2.3-2.5h0c0,0-5,0-5,0-.6-.3-2.5-.1-3.2-.5-2.1-1.1-3.2-3.4-4.9-5,0-.2,0,0,0-.2.2-.3,1.3-.2,1.8-.2.1-.1.3-.1.5-.2.1-.2.2-.2.3-.6-.6-.5-1.5-1.3-2.1-1.9,0,0,0-.2,0-.3.5-.3,2-1.5,2.5-1.3.4.2.5.9.8,1.3.7.9,2.2,1.8,3.3,2.3,6.8,3,17.5,1.8,23-1.6,1.7-1,4.2-.3,5.1-2.2"/>
          </g>
          <g class="cls-1">
            <path id="path5498" class="cls-26" d="M138.8,273.6c1.2,0,3.3,1.3,4.4,1.7,2.1.9,4.4,1.2,6.8,1.8.7.2,2,0,2.5,0,1.4-.3,2.5-.2,3.7-.6,1.4-.5,2.7-1.4,4.5-1.4.5.4,2,1.3,1.7,2.2-.1.2,0,0-.2.2-.4.3-1,.1-1.6.3-.8.2-1.8.5-2.6.8-1.5.6-2.7,1.7-4.3,2.2-.8.2-1.4.1-2.3.3-4.3,1-8.2-1.5-9.8-3.7-.6-.7-3-2.6-2.7-3.7"/>
          </g>
          <g class="cls-8">
            <path id="path5500" class="cls-26" d="M21.1,278.5c.2,0,.2,0,.3,0,.1.2.1.6,0,.9-.6.9-.4,3.2-.7,4.4-.5,1.8-.8,3.8-1.2,5.6-.2.7,0,1.5-.2,2.1v8.2c.3,1,.4,2.7.3,3.6h-.5c-.8-1.8-1.3-3.7-1.8-6-.3-1.4-.2-3.5,0-4.7.2-1.1.1-2,.4-3.1.5-2,1-4.1,1.6-6,.6-1.7.7-3.6,1.6-5.1"/>
          </g>
          <g class="cls-9">
            <path id="path5502" class="cls-26" d="M103.7,300.1h-.4c-.1-.3,0-.9,0-1.4.2-.3,0-.6.2-1,.3-.8.5-1.8.9-2.6.3-.6.8-1,1.1-1.5.9-1.4,1.7-2.9,2.5-4.4.8-1.6,1.2-3.8,1.9-5.6.6-1.6,1.1-5.1,3-5.3.1.3.2.4.2.9-.4.7,0,1.9-.3,2.8-.2.7-.2,1.8-.3,2.6v2c-.2.8-.2,2.5,0,3.4.2,1.1.6,3,.3,4.4-.8,3.4-4.1,4.4-6.6,6.1-.4.3-.9.6-1.3.9-.4.3-.4.8-1,1,0,0,0,0,0,0,0-.7,0-1.4,0-2.2"/>
          </g>
          <g class="cls-31">
            <path id="path5504" class="cls-26" d="M24.1,280.4c.2,0,.3,0,.5,0,.6,1.1,1.9,1.7,2,3.3-.6.9-.6,2.5-.9,3.7-1.3,4.7-.6,10.4-.6,15.9-.1,0-.2,0-.4,0-.7-1.6-.6-3.6-1.1-5.6-.9-3.8-1.4-9.5-.4-13.6.3-1.4.3-2.8.9-3.9"/>
          </g>
          <g class="cls-12">
            <path id="path5506" class="cls-26" d="M100.2,302.8c3,0,3.7,2.2,3.7,5.2s0,2.6-.4,3.2c-.1,0-.2,0-.5,0-.3-1.5-1-3-2.3-3.5-1.6-.5-4.1,1.1-4.8,2-.5.7-1,1.6-1.4,2.4-.1.6-.3,1.1-.4,1.7-.5.7-1.7,1.5-2.4,2-1.7,1.7-3.4,3.4-5.2,5.2-5,6.7-10.4,12.9-16.1,18.9-.2,0,0,0-.2,0q0,0,0-.3c1.5-1.6,2.7-3.4,4-5.2,1-1.4,2.3-2.8,3.3-4.2,1.8-2.5,3.3-5.2,5.1-7.8,1.9-2.7,3.9-5.4,5.8-8.1,1-1.4,2-2.6,3-4,.6-.8,1.5-1.4,2.1-2.2,1-1.3,2.2-2.8,3.5-3.8.6-.4,1.2-.9,1.9-1.2.5-.2,1.1-.1,1.5-.4"/>
          </g>
          <g class="cls-22">
            <path id="path5508" class="cls-26" d="M137.7,319.6h-.5s0,0,0,0c-.1-1-.5-1.9-.7-2.8-.2-.7,0-1.5.2-2,.4-1.7.1-4.9-.4-6.2-.5-1.3-1.5-2.3-2.3-3.4-.4-.5-1-.5-1.2-1.4.2,0,.2,0,.5,0,.5.4,1.1.5,1.7.9.9.6,2.1,1.6,2.8,2.5,1.6,2.1,2.5,4.6,3.9,6.9,1.8,3,3.4,6.1,5.3,9,1.7,2.7,3.8,5.2,5.7,7.8,1,1.3,2.5,2.4,3.4,3.8,1.4,2.1,1.9,4.6,2.7,7.3.4,1.2.9,2.7.6,4h-.2c-.1,0-.3,0-.6,0-.4-.3-.7-.7-1.1-1-.4-.6-.3-1.5-.5-2.2-.6-1.8-1.1-5.2-2.1-6.7-1-1.5-2.5-2.9-3.9-4-.6-.6-1.1-1.2-1.7-1.8-1.5-1.2-3.1-2.7-4.3-4.3-.4-.5-1-.9-1.4-1.5-1.3-1.8-2.3-4-3.2-6.1-.4-.9-.6-2.2-1.7-2.4-.6.9-.7,2.1-.9,3.6"/>
          </g>
          <g class="cls-13">
            <path id="path5510" class="cls-26" d="M131.7,310.4h.5c.3,1.3.8,2.6,1.1,4,.5,2.2-.2,4.5-.9,5.9-1.5,2.8-3.4,4.9-5.3,7.4l-1.4,1.4c-.4.6-1,1-1.4,1.6-.5.8-.5,1.8-1.3,2.4-1.6,1.2-3.8,1.5-5.6,2.6-.7.4-1.3,1.2-1.6,2-.2.7,0,1.6-.8,1.8-.1-.2-.2-.3-.2-.7-.5-.7-.5-2.4-.9-3.3h0c-.3,1.4-.5,2.7-.8,4.1-.2.7,0,1.7-.5,2-.1,0,0,0-.3,0-.4-1.7-1.3-3.5-1.9-5.2-.3-.8-.3-1.7-.9-2.2-1.6-1.3-4.3-1.4-6.1-2.5-2.8-1.7-6.1-4.4-8-7.1-1-1.5-2.1-4.2-1.5-6.9.1-.7,0-1.4.4-1.7,0,0,0,0,.3,0,.4.8.4,1.7.8,2.6.6,1.4,2.1,4.3,3.4,4.9.7.3,1.5,0,2-.2,3.1-1.1,2-3.3,1.8-6.4.1,0,.2,0,.4,0,2,3.3,3.3,7.6,6.6,9.7,1.3.9,3,1.3,4.7,1.8,9.3,2.5,15-4.1,17-11.2.5-1.9.2-4.5.4-6.6"/>
          </g>
          <g class="cls-16">
            <path id="path5512" class="cls-26" d="M134.4,323.5c.4,0,.4.1.4.6-.8.8-1.1,2.2-2,2.9-1.5,1.1-3.3,1.8-5,2.8-.5.3-2.3,1.7-2.8,1.5-.2-.1-.2-.1-.2-.5,1.5-1.5,3-3,4.6-4.6,1-.7,2.2-1.5,3.4-2,.6-.2,1.1-.3,1.6-.7"/>
          </g>
          <g class="cls-29">
            <path id="path5514" class="cls-26" d="M75.4,125.2s4.5,16.5,8.5,20.5c4,4,0,12.5,0,17s6.5,6.5,6.5,6.5c0,0-3.2-3.9-3.2-5.6v-11.8c0-3.1-1.9-10.1-3.8-12.1-1.9-1.9-6.7-16.5-7.8-17.6-1.1-1.1,0,3.1,0,3.1"/>
          </g>
        </g>
      </g>
    </g>
  </g>
</svg>